<?xml version="1.0" encoding="UTF-8" standalone="no"?>
<!-- Created with Inkscape (http://www.inkscape.org/) -->

<svg
   xmlns:dc="http://purl.org/dc/elements/1.1/"
   xmlns:cc="http://creativecommons.org/ns#"
   xmlns:rdf="http://www.w3.org/1999/02/22-rdf-syntax-ns#"
   xmlns:svg="http://www.w3.org/2000/svg"
   xmlns="http://www.w3.org/2000/svg"
   xmlns:xlink="http://www.w3.org/1999/xlink"
   xmlns:sodipodi="http://sodipodi.sourceforge.net/DTD/sodipodi-0.dtd"
   xmlns:inkscape="http://www.inkscape.org/namespaces/inkscape"
   width="111.43766"
   height="186.73033"
   id="svg5691"
   version="1.1"
   inkscape:version="0.48.3.1 r9886"
   sodipodi:docname="joede-Eppendorf-opened-filter-RED.svg">
  <title
     id="title3030">Opened Eppendorf tube with filter RED</title>
  <defs
     id="defs5693">
    <linearGradient
       inkscape:collect="always"
       xlink:href="#id0-5-2-7"
       id="linearGradient4992"
       gradientUnits="userSpaceOnUse"
       gradientTransform="matrix(0.05694573,0,0,0.05694573,722.59871,1211.4948)"
       x1="4677.2002"
       y1="7108.6001"
       x2="7453.2998"
       y2="7108.6001" />
    <linearGradient
       x1="183"
       y1="8179"
       x2="1050"
       gradientUnits="userSpaceOnUse"
       y2="8179"
       id="id0-5-2-7">
      <stop
         offset="0"
         style="stop-color:#BED3DE"
         id="stop9-3-0-3" />
      <stop
         offset=".65882"
         style="stop-color:#FFFFFF"
         id="stop11-4-3-9" />
      <stop
         offset="1"
         style="stop-color:#CFDFE9"
         id="stop13-3-4-4" />
    </linearGradient>
    <linearGradient
       inkscape:collect="always"
       xlink:href="#id0-5-2-7"
       id="linearGradient4989"
       gradientUnits="userSpaceOnUse"
       gradientTransform="matrix(0.20584742,0,0,0.20584742,940.98102,-348.2084)"
       x1="183"
       y1="8179"
       x2="1050"
       y2="8179" />
    <linearGradient
       x1="183"
       y1="8179"
       x2="1050"
       gradientUnits="userSpaceOnUse"
       y2="8179"
       id="linearGradient5637">
      <stop
         offset="0"
         style="stop-color:#BED3DE"
         id="stop5639" />
      <stop
         offset=".65882"
         style="stop-color:#FFFFFF"
         id="stop5641" />
      <stop
         offset="1"
         style="stop-color:#CFDFE9"
         id="stop5643" />
    </linearGradient>
    <linearGradient
       inkscape:collect="always"
       xlink:href="#id0-5-2-7"
       id="linearGradient4985"
       gradientUnits="userSpaceOnUse"
       gradientTransform="matrix(0.05694573,0,0,0.05694573,722.59871,1211.4948)"
       x1="3054.2"
       y1="1142"
       x2="959.48999"
       y2="-209.81" />
    <linearGradient
       x1="183"
       y1="8179"
       x2="1050"
       gradientUnits="userSpaceOnUse"
       y2="8179"
       id="linearGradient5646">
      <stop
         offset="0"
         style="stop-color:#BED3DE"
         id="stop5648" />
      <stop
         offset=".65882"
         style="stop-color:#FFFFFF"
         id="stop5650" />
      <stop
         offset="1"
         style="stop-color:#CFDFE9"
         id="stop5652" />
    </linearGradient>
    <linearGradient
       inkscape:collect="always"
       xlink:href="#id0-5-2-7"
       id="linearGradient4981"
       gradientUnits="userSpaceOnUse"
       gradientTransform="matrix(0.05694573,0,0,0.05694573,722.59871,1211.4948)"
       x1="3046.8"
       y1="1798.9"
       x2="366"
       y2="45.777" />
    <linearGradient
       x1="183"
       y1="8179"
       x2="1050"
       gradientUnits="userSpaceOnUse"
       y2="8179"
       id="linearGradient5655">
      <stop
         offset="0"
         style="stop-color:#BED3DE"
         id="stop5657" />
      <stop
         offset=".65882"
         style="stop-color:#FFFFFF"
         id="stop5659" />
      <stop
         offset="1"
         style="stop-color:#CFDFE9"
         id="stop5661" />
    </linearGradient>
    <linearGradient
       inkscape:collect="always"
       xlink:href="#id4-40-6-7"
       id="linearGradient4977"
       gradientUnits="userSpaceOnUse"
       gradientTransform="matrix(0.20584742,0,0,0.20584742,940.98102,-348.2084)"
       x1="222"
       y1="9547"
       x2="1058"
       y2="9701" />
    <linearGradient
       x1="222"
       y1="9547"
       x2="1058"
       gradientUnits="userSpaceOnUse"
       y2="9701"
       id="id4-40-6-7">
      <stop
         offset="0"
         style="stop-color:#89959E"
         id="stop19-2-7-8" />
      <stop
         offset=".65882"
         style="stop-color:#DADDE1"
         id="stop21-17-6-2" />
      <stop
         offset="1"
         style="stop-color:#B5BBC2"
         id="stop23-23-1-2" />
    </linearGradient>
    <linearGradient
       inkscape:collect="always"
       xlink:href="#id4-40"
       id="linearGradient5113"
       gradientUnits="userSpaceOnUse"
       x1="1520"
       y1="1622.3622"
       x2="1610"
       y2="1462.3622" />
    <linearGradient
       x1="222"
       y1="9547"
       x2="1058"
       gradientUnits="userSpaceOnUse"
       y2="9701"
       id="id4-40">
      <stop
         offset="0"
         style="stop-color:#e08888;stop-opacity:1;"
         id="stop19-2" />
      <stop
         offset="0.65881997"
         style="stop-color:#eddfdf;stop-opacity:1;"
         id="stop21-17" />
      <stop
         offset="1"
         style="stop-color:#e08888;stop-opacity:1;"
         id="stop23-23" />
    </linearGradient>
  </defs>
  <sodipodi:namedview
     id="base"
     pagecolor="#ffffff"
     bordercolor="#666666"
     borderopacity="1.0"
     inkscape:pageopacity="0.0"
     inkscape:pageshadow="2"
     inkscape:zoom="0.35"
     inkscape:cx="-612.85"
     inkscape:cy="-226.63487"
     inkscape:document-units="px"
     inkscape:current-layer="layer1"
     showgrid="false"
     fit-margin-top="0"
     fit-margin-left="0"
     fit-margin-right="0"
     fit-margin-bottom="0"
     inkscape:window-width="1113"
     inkscape:window-height="719"
     inkscape:window-x="174"
     inkscape:window-y="85"
     inkscape:window-maximized="0" />
  <metadata
     id="metadata5696">
    <rdf:RDF>
      <cc:Work
         rdf:about="">
        <dc:format>image/svg+xml</dc:format>
        <dc:type
           rdf:resource="http://purl.org/dc/dcmitype/StillImage" />
        <dc:title>Opened Eppendorf tube with filter RED</dc:title>
        <dc:description>Opened Eppendorf tube with an used filter and filled with a neutral liquid</dc:description>
        <dc:subject>
          <rdf:Bag>
            <rdf:li>chemistry</rdf:li>
            <rdf:li>science</rdf:li>
            <rdf:li>laboratory</rdf:li>
          </rdf:Bag>
        </dc:subject>
        <dc:source>https://openclipart.org/user-detail/joede</dc:source>
        <cc:license
           rdf:resource="http://creativecommons.org/licenses/by-sa/3.0/" />
      </cc:Work>
      <cc:License
         rdf:about="http://creativecommons.org/licenses/by-sa/3.0/">
        <cc:permits
           rdf:resource="http://creativecommons.org/ns#Reproduction" />
        <cc:permits
           rdf:resource="http://creativecommons.org/ns#Distribution" />
        <cc:requires
           rdf:resource="http://creativecommons.org/ns#Notice" />
        <cc:requires
           rdf:resource="http://creativecommons.org/ns#Attribution" />
        <cc:permits
           rdf:resource="http://creativecommons.org/ns#DerivativeWorks" />
        <cc:requires
           rdf:resource="http://creativecommons.org/ns#ShareAlike" />
      </cc:License>
    </rdf:RDF>
  </metadata>
  <g
     inkscape:label="Ebene 1"
     inkscape:groupmode="layer"
     id="layer1"
     transform="translate(-97.135713,-118.99697)">
    <g
       transform="matrix(0.26001256,0,0,0.26001256,-93.041193,-185.72053)"
       id="g5115">
      <path
         d="m 952.30184,1341.7757 h 26.14378 v -10.9108 h -26.14378 c -6.79363,0 -12.96655,-0.41 -19.14516,-1.6457 -5.96791,-1.4407 -12.14083,-3.9122 -18.93445,-8.2344 l -13.58726,-8.4393 -5.7629,9.2594 13.38224,8.4393 c 8.02366,5.1479 15.43799,8.0294 22.64163,9.6751 7.20363,1.6514 13.99726,1.8564 21.4059,1.8564 z"
         style="fill:#b5d1db;fill-rule:evenodd;stroke:#1f1a17;stroke-width:5.55784607"
         class="fil0 str0"
         id="path28-2-8"
         inkscape:connector-curvature="0" />
      <path
         d="m 1147.0335,1603.2022 c 0,51.4618 -39.9361,255.8628 -64.4284,278.6981 -7.2037,7.0043 -21.8216,7.4029 -29.6403,0 -24.4981,-22.6075 -64.22909,-227.2363 -64.01839,-278.6981 v -257.93 h 158.08709 v 257.93 z"
         style="fill:url(#linearGradient4992);fill-rule:evenodd"
         class="fil1"
         id="path30-4-9"
         inkscape:connector-curvature="0" />
      <path
         d="M 978.85563,1345.2722 H 1157.1185 V 1325.512 H 978.85563 v 19.7602 z"
         class="fil2"
         style="fill:url(#linearGradient4989);fill-rule:evenodd"
         id="path34-1-0"
         inkscape:connector-curvature="0" />
      <path
         d="m 978.85563,1342.5957 h 178.26287 v 5.558 H 978.85563 v -5.558 z M 1160,1345.2722 c 0,1.4407 -1.4407,2.8815 -2.8815,2.8815 v -2.8815 H 1160 z m -5.5579,0 V 1325.512 H 1160 v 19.7602 h -5.5579 z m 2.6764,-22.6416 c 1.4408,0 2.8815,1.4407 2.8815,2.8814 h -2.8815 v -2.8814 z m 0,5.5579 H 978.85563 v -5.5579 h 178.26287 v 5.5579 z m -181.14432,-2.6765 c 0,-1.4407 1.44072,-2.8814 2.88145,-2.8814 v 2.8814 h -2.88145 z m 5.5579,0 v 19.7602 h -5.5579 v -19.7602 h 5.5579 z m -2.67645,22.6417 c -1.44073,0 -2.88145,-1.4408 -2.88145,-2.8815 h 2.88145 v 2.8815 z"
         class="fil3"
         style="fill:#1f1a17;fill-rule:nonzero"
         id="path36-8-0"
         inkscape:connector-curvature="0" />
      <path
         d="m 914.22223,1255.7302 -124.54032,-81.1021 -30.66926,47.3435 124.33531,81.1021 30.87597,-47.3452 z"
         class="fil4"
         style="fill:url(#linearGradient4985);fill-rule:evenodd"
         id="path40-8-1"
         inkscape:connector-curvature="0" />
      <path
         d="m 912.57649,1257.9949 -124.3353,-81.1021 3.08646,-4.5306 124.3353,81.1021 -3.08646,4.5306 z m -125.15532,-84.8093 c 0.82002,-1.2351 2.67645,-1.6469 3.90648,-0.8234 l -1.64574,2.2641 -2.26074,-1.4407 z m 4.73219,2.882 -30.87655,47.3447 -4.52889,-3.0876 30.67325,-47.1391 4.73219,2.882 z m -34.582,48.1682 c -1.23516,-0.8235 -1.64687,-2.6759 -0.82344,-3.9111 l 2.26473,1.6469 -1.44129,2.2642 z m 2.88202,-4.7345 124.33531,81.1021 -2.88146,4.7379 -124.3353,-81.1078 2.88316,-4.7328 z m 125.15532,85.0143 c -0.61501,1.2357 -2.67644,1.6457 -3.70147,0.8257 l 1.44073,-2.2665 2.26074,1.4408 z m -4.52718,-3.0865 30.67097,-47.1402 4.73219,2.882 -30.87598,47.3447 -4.52718,-3.0865 z m 34.58314,-47.9637 c 1.23572,0.6173 1.64573,2.6759 0.82002,3.7055 l -2.26075,-1.4413 1.44073,-2.2642 z"
         class="fil3"
         style="fill:#1f1a17;fill-rule:nonzero"
         id="path42-5-2"
         inkscape:connector-curvature="0" />
      <path
         d="m 903.92644,1309.2483 -158.91276,-103.7437 -10.90852,16.6726 158.91845,103.7437 10.90511,-16.6737 z"
         class="fil5"
         style="fill:url(#linearGradient4981);fill-rule:evenodd"
         id="path46-8-6"
         inkscape:connector-curvature="0" />
      <path
         d="m 902.48571,1311.5148 -158.91275,-103.5388 2.88259,-4.7368 158.91275,103.5445 -2.88145,4.7321 z M 742.75294,1204.0639 c 0.61729,-1.2351 2.67588,-1.6468 3.70489,-0.8234 l -1.44073,2.2643 -2.26416,-1.4409 z m 4.52832,3.0877 -10.90966,16.6737 -4.52889,-3.0876 10.91023,-16.6737 4.52832,3.0876 z m -14.61512,17.4971 c -1.23515,-0.8234 -1.64687,-2.6759 -0.82343,-3.911 l 2.26473,1.4407 -1.4413,2.4703 z m 2.88202,-4.7344 159.12346,103.5444 -3.08646,4.7322 -158.91845,-103.5388 2.88373,-4.7367 z m 159.94348,107.4509 c -0.82002,1.2357 -2.67645,1.6514 -3.90648,0.8257 l 1.44073,-2.2665 2.46575,1.4408 z m -4.73219,-3.0865 10.9108,-16.6737 4.52718,3.0864 -10.70579,16.6738 -4.73219,-3.0865 z m 14.61227,-17.4937 c 1.23572,0.82 1.65143,2.6764 0.82571,3.9064 l -2.26644,-1.4407 1.44073,-2.4657 z"
         class="fil3"
         style="fill:#1f1a17;fill-rule:nonzero"
         id="path48-0-4"
         inkscape:connector-curvature="0" />
      <path
         d="m 1140.2398,1667.8356 c -12.7615,80.2821 -39.3153,197.2087 -57.4297,214.0647 -7.4087,7.0043 -22.0266,7.4029 -29.8453,0 -18.1144,-16.6282 -44.6739,-133.7826 -57.23046,-214.0647 h 144.50546 z"
         style="fill:url(#linearGradient4977);fill-rule:evenodd"
         class="fil6"
         id="path50-8-0"
         inkscape:connector-curvature="0" />
      <g
         transform="matrix(0.20584742,0,0,0.20584742,940.98102,-348.2084)"
         id="g52-7-4"
         style="fill-rule:evenodd">
        <path
           d="m 1015,9480 c 0,25 -2,58 -6,97 l -27,-2 c 4,-38 6,-70 6,-95 h 27 z m -6,97 c -5,53 -13,116 -23,185 l -27,-4 c 11,-70 19,-132 23,-183 l 27,2 z m -23,185 c -11,68 -24,145 -38,224 l -27,-5 c 15,-78 28,-154 38,-223 l 27,4 z m -38,224 c -68,365 -174,786 -251,858 l -18,-19 c 72,-68 175,-483 242,-844 l 27,5 z m -269,839 9,9 -9,-9 z m 18,19 c -3,4 0,1 0,1 l -18,-20 c 0,0 -4,4 0,0 l 18,19 z m 0,1 -9,-10 9,10 z m 0,0 c -6,5 -13,10 -20,14 l -13,-24 c 6,-3 10,-6 15,-10 l 18,20 z m -20,14 c -7,4 -14,7 -22,9 l -8,-26 c 6,-2 12,-4 17,-7 l 13,24 z m -22,9 c -40,12 -89,5 -120,-24 l 18,-19 c 24,21 62,27 94,17 l 8,26 z m -120,-24 c 0,0 -1,-1 -3,-2 l 19,-19 2,2 -18,19 z m -3,-2 c -18,-19 -37,-54 -56,-102 l 24,-10 c 19,45 36,77 51,93 l -19,19 z m -56,-102 c -19,-47 -39,-107 -59,-175 l 26,-7 c 19,66 39,125 57,172 l -24,10 z m -59,-175 C 317,10220 218,9660 219,9480 h 27 c -1,178 97,734 197,1078 l -26,7 z M 246,9480 h -13 13 z m -27,0 V 8227 h 27 v 1253 h -27 z m 0,-1253 c 0,-6 7,-13 14,-13 v 13 h -14 z m 14,-13 h 768 v 27 H 233 v -27 z m 768,0 c 7,0 14,7 14,13 h -14 v -13 z m 14,13 V 9480 H 988 V 8227 h 27 z"
           style="fill:#1f1a17"
           class="fil3"
           id="path54-3-0"
           inkscape:connector-curvature="0" />
      </g>
      <g
         transform="matrix(0.87999999,0,0,0.88571454,-327.59999,150.26959)"
         id="g5107">
        <path
           style="fill:none;stroke:#000000;stroke-width:4.53076744;stroke-linecap:butt;stroke-linejoin:miter;stroke-miterlimit:4;stroke-opacity:1;stroke-dasharray:none"
           d="m 1500,1302.3622 170,0 0,20 -170,0 z"
           id="path5034"
           inkscape:connector-curvature="0" />
        <path
           style="fill:url(#linearGradient5113);fill-opacity:1;stroke:none"
           d="m 1520,1402.3622 0,220.0001 130,0 0,-130.0001 z"
           id="path5089"
           inkscape:connector-curvature="0"
           sodipodi:nodetypes="ccccc" />
        <path
           style="fill:none;stroke:#000000;stroke-width:4.53076744;stroke-linecap:butt;stroke-linejoin:miter;stroke-miterlimit:4;stroke-opacity:1;stroke-dasharray:none"
           d="m 1520,1322.3622 130,0 0,300 -130,0 z"
           id="path5034-2"
           inkscape:connector-curvature="0"
           sodipodi:nodetypes="ccccc" />
        <path
           style="fill:none;stroke:#000000;stroke-width:4.53076744;stroke-linecap:butt;stroke-linejoin:miter;stroke-miterlimit:4;stroke-opacity:1;stroke-dasharray:none"
           d="m 1540,1622.3621 90,0 0,30 -90,0 z"
           id="path5034-9"
           inkscape:connector-curvature="0" />
      </g>
      <path
         d="m 1000.4722,1393.8526 h 85.84 v 10.9108 h -85.84 v -10.9108 z m 0,133.7997 h 85.84 v 11.1158 h -85.84 v -11.1158 z m 0,134.0104 h 85.84 v 10.9108 h -85.84 v -10.9108 z"
         class="fil7"
         style="opacity:0.8;fill:#000000;fill-opacity:0.25628004;fill-rule:evenodd"
         id="path58-1-0"
         inkscape:connector-curvature="0" />
    </g>
  </g>
</svg>
